<mxfile host="app.diagrams.net" modified="2023-05-05T09:25:25.951Z" agent="Mozilla/5.0 (Windows NT 10.0; Win64; x64) AppleWebKit/537.36 (KHTML, like Gecko) Chrome/112.0.0.0 Safari/537.36" etag="gHgiVCFerLpMDHJ86Owj" version="21.2.1" type="device">
  <diagram id="Qnofa2zRBOY_JgTmgzuG" name="Page-1">
    <mxGraphModel dx="1845" dy="1686" grid="1" gridSize="10" guides="1" tooltips="1" connect="1" arrows="1" fold="1" page="1" pageScale="1" pageWidth="827" pageHeight="1169" math="0" shadow="0">
      <root>
        <mxCell id="0" />
        <mxCell id="1" parent="0" />
        <mxCell id="7vYc5gN3IvNaSys7rYte-1" value="" style="shape=process;whiteSpace=wrap;html=1;backgroundOutline=1;size=0.17073170731707318;movable=0;resizable=0;rotatable=0;deletable=0;editable=0;locked=1;connectable=0;" vertex="1" parent="1">
          <mxGeometry x="-110" y="-100" width="730" height="490" as="geometry" />
        </mxCell>
        <mxCell id="NL4gGqxLW-4LoRQ3G2x3-5" style="edgeStyle=none;rounded=0;orthogonalLoop=1;jettySize=auto;html=1;entryX=1;entryY=0;entryDx=0;entryDy=0;endArrow=none;endFill=0;dashed=1;exitX=0;exitY=1;exitDx=0;exitDy=0;startArrow=open;startFill=0;labelBackgroundColor=#2ED5FF;" parent="1" source="NL4gGqxLW-4LoRQ3G2x3-2" target="NL4gGqxLW-4LoRQ3G2x3-4" edge="1">
          <mxGeometry relative="1" as="geometry" />
        </mxCell>
        <mxCell id="NL4gGqxLW-4LoRQ3G2x3-6" value="&amp;lt;&amp;lt;extend&amp;gt;&amp;gt;" style="edgeLabel;html=1;align=center;verticalAlign=middle;resizable=0;points=[];labelBackgroundColor=default;" parent="NL4gGqxLW-4LoRQ3G2x3-5" vertex="1" connectable="0">
          <mxGeometry x="-0.473" y="-1" relative="1" as="geometry">
            <mxPoint x="-12" y="10" as="offset" />
          </mxGeometry>
        </mxCell>
        <mxCell id="NL4gGqxLW-4LoRQ3G2x3-52" style="edgeStyle=none;rounded=0;orthogonalLoop=1;jettySize=auto;html=1;entryX=0.5;entryY=0;entryDx=0;entryDy=0;dashed=1;endArrow=none;endFill=0;startArrow=open;startFill=0;labelBackgroundColor=#2ED5FF;exitX=0.5;exitY=1;exitDx=0;exitDy=0;" parent="1" source="NL4gGqxLW-4LoRQ3G2x3-2" target="NL4gGqxLW-4LoRQ3G2x3-49" edge="1">
          <mxGeometry relative="1" as="geometry" />
        </mxCell>
        <mxCell id="NL4gGqxLW-4LoRQ3G2x3-54" value="&amp;lt;&amp;lt;extend&amp;gt;&amp;gt;" style="edgeLabel;html=1;align=center;verticalAlign=middle;resizable=0;points=[];labelBackgroundColor=default;" parent="NL4gGqxLW-4LoRQ3G2x3-52" vertex="1" connectable="0">
          <mxGeometry x="-0.3329" relative="1" as="geometry">
            <mxPoint y="5" as="offset" />
          </mxGeometry>
        </mxCell>
        <mxCell id="NL4gGqxLW-4LoRQ3G2x3-53" style="edgeStyle=none;rounded=0;orthogonalLoop=1;jettySize=auto;html=1;entryX=0;entryY=0.5;entryDx=0;entryDy=0;dashed=1;endArrow=none;endFill=0;exitX=0.5;exitY=0;exitDx=0;exitDy=0;startArrow=open;startFill=0;labelBackgroundColor=#2ED5FF;" parent="1" source="NL4gGqxLW-4LoRQ3G2x3-2" target="NL4gGqxLW-4LoRQ3G2x3-50" edge="1">
          <mxGeometry relative="1" as="geometry" />
        </mxCell>
        <mxCell id="NL4gGqxLW-4LoRQ3G2x3-55" value="&amp;lt;&amp;lt;extend&amp;gt;&amp;gt;" style="edgeLabel;html=1;align=center;verticalAlign=middle;resizable=0;points=[];labelBackgroundColor=default;" parent="NL4gGqxLW-4LoRQ3G2x3-53" vertex="1" connectable="0">
          <mxGeometry x="-0.3507" relative="1" as="geometry">
            <mxPoint x="23" y="-15" as="offset" />
          </mxGeometry>
        </mxCell>
        <mxCell id="NL4gGqxLW-4LoRQ3G2x3-2" value="Створення облікового запису" style="ellipse;whiteSpace=wrap;html=1;labelBackgroundColor=none;" parent="1" vertex="1">
          <mxGeometry x="190" y="110" width="120" height="50" as="geometry" />
        </mxCell>
        <mxCell id="NL4gGqxLW-4LoRQ3G2x3-4" value="Редагування облікового запису" style="ellipse;whiteSpace=wrap;html=1;labelBackgroundColor=none;" parent="1" vertex="1">
          <mxGeometry x="50" y="175" width="120" height="50" as="geometry" />
        </mxCell>
        <mxCell id="NL4gGqxLW-4LoRQ3G2x3-34" style="edgeStyle=none;rounded=0;orthogonalLoop=1;jettySize=auto;html=1;entryX=0.5;entryY=0;entryDx=0;entryDy=0;endArrow=none;endFill=0;dashed=1;startArrow=open;startFill=0;" parent="1" source="NL4gGqxLW-4LoRQ3G2x3-31" target="NL4gGqxLW-4LoRQ3G2x3-33" edge="1">
          <mxGeometry relative="1" as="geometry" />
        </mxCell>
        <mxCell id="NL4gGqxLW-4LoRQ3G2x3-35" value="&amp;lt;&amp;lt;extend&amp;gt;&amp;gt;" style="edgeLabel;html=1;align=center;verticalAlign=middle;resizable=0;points=[];" parent="NL4gGqxLW-4LoRQ3G2x3-34" vertex="1" connectable="0">
          <mxGeometry x="-0.4787" relative="1" as="geometry">
            <mxPoint x="1" y="6" as="offset" />
          </mxGeometry>
        </mxCell>
        <mxCell id="NL4gGqxLW-4LoRQ3G2x3-31" value="Перегляд власного розкладу занять" style="ellipse;whiteSpace=wrap;html=1;" parent="1" vertex="1">
          <mxGeometry x="45" y="-80" width="120" height="50" as="geometry" />
        </mxCell>
        <mxCell id="NL4gGqxLW-4LoRQ3G2x3-33" value="Перегляд детальної інформації про обране заняття" style="ellipse;whiteSpace=wrap;html=1;" parent="1" vertex="1">
          <mxGeometry x="40" y="10" width="130" height="80" as="geometry" />
        </mxCell>
        <mxCell id="NL4gGqxLW-4LoRQ3G2x3-49" value="Перегляд облікового запису" style="ellipse;whiteSpace=wrap;html=1;labelBackgroundColor=none;" parent="1" vertex="1">
          <mxGeometry x="200" y="210" width="134" height="50" as="geometry" />
        </mxCell>
        <mxCell id="NL4gGqxLW-4LoRQ3G2x3-50" value="Видалення облікового запису" style="ellipse;whiteSpace=wrap;html=1;labelBackgroundColor=none;" parent="1" vertex="1">
          <mxGeometry x="359" y="-90" width="120" height="50" as="geometry" />
        </mxCell>
        <mxCell id="NL4gGqxLW-4LoRQ3G2x3-56" value="Синхронізація локального розкладу з сервером" style="ellipse;whiteSpace=wrap;html=1;labelBackgroundColor=none;" parent="1" vertex="1">
          <mxGeometry x="35" y="260" width="130" height="70" as="geometry" />
        </mxCell>
        <mxCell id="NL4gGqxLW-4LoRQ3G2x3-60" value="Пошук користувачів" style="ellipse;whiteSpace=wrap;html=1;labelBackgroundColor=none;" parent="1" vertex="1">
          <mxGeometry x="350" y="-10" width="140" height="40" as="geometry" />
        </mxCell>
        <mxCell id="NL4gGqxLW-4LoRQ3G2x3-67" style="edgeStyle=none;rounded=0;orthogonalLoop=1;jettySize=auto;html=1;endArrow=classic;endFill=1;labelBackgroundColor=#2ED5FF;entryX=1;entryY=1;entryDx=0;entryDy=0;" parent="1" target="NL4gGqxLW-4LoRQ3G2x3-50" edge="1">
          <mxGeometry relative="1" as="geometry">
            <mxPoint x="560" y="80" as="sourcePoint" />
            <mxPoint x="460" y="220" as="targetPoint" />
          </mxGeometry>
        </mxCell>
        <mxCell id="NL4gGqxLW-4LoRQ3G2x3-68" style="edgeStyle=none;rounded=0;orthogonalLoop=1;jettySize=auto;html=1;endArrow=classic;endFill=1;labelBackgroundColor=#2ED5FF;entryX=0.5;entryY=1;entryDx=0;entryDy=0;" parent="1" target="NL4gGqxLW-4LoRQ3G2x3-60" edge="1">
          <mxGeometry relative="1" as="geometry">
            <mxPoint x="540" y="100" as="sourcePoint" />
            <mxPoint x="560" y="280" as="targetPoint" />
          </mxGeometry>
        </mxCell>
        <mxCell id="NL4gGqxLW-4LoRQ3G2x3-73" style="edgeStyle=none;rounded=0;orthogonalLoop=1;jettySize=auto;html=1;startArrow=none;startFill=0;endArrow=classic;endFill=1;labelBackgroundColor=#2ED5FF;entryX=1;entryY=0;entryDx=0;entryDy=0;" parent="1" target="NL4gGqxLW-4LoRQ3G2x3-49" edge="1">
          <mxGeometry relative="1" as="geometry">
            <mxPoint x="530" y="160" as="sourcePoint" />
            <mxPoint x="400" y="230" as="targetPoint" />
          </mxGeometry>
        </mxCell>
        <mxCell id="qXKNGsoepD3LdG7qF9Sp-11" style="rounded=0;orthogonalLoop=1;jettySize=auto;html=1;entryX=1.008;entryY=0.619;entryDx=0;entryDy=0;entryPerimeter=0;" parent="1" target="NL4gGqxLW-4LoRQ3G2x3-2" edge="1">
          <mxGeometry relative="1" as="geometry">
            <mxPoint x="530" y="140" as="sourcePoint" />
          </mxGeometry>
        </mxCell>
        <mxCell id="qXKNGsoepD3LdG7qF9Sp-13" style="rounded=0;orthogonalLoop=1;jettySize=auto;html=1;entryX=1;entryY=0;entryDx=0;entryDy=0;" parent="1" target="qXKNGsoepD3LdG7qF9Sp-12" edge="1">
          <mxGeometry relative="1" as="geometry">
            <mxPoint x="530" y="180" as="sourcePoint" />
          </mxGeometry>
        </mxCell>
        <mxCell id="qXKNGsoepD3LdG7qF9Sp-15" style="rounded=0;orthogonalLoop=1;jettySize=auto;html=1;entryX=1;entryY=0;entryDx=0;entryDy=0;" parent="1" target="qXKNGsoepD3LdG7qF9Sp-14" edge="1">
          <mxGeometry relative="1" as="geometry">
            <mxPoint x="560" y="190" as="sourcePoint" />
          </mxGeometry>
        </mxCell>
        <mxCell id="qXKNGsoepD3LdG7qF9Sp-20" style="rounded=0;orthogonalLoop=1;jettySize=auto;html=1;" parent="1" target="qXKNGsoepD3LdG7qF9Sp-19" edge="1">
          <mxGeometry relative="1" as="geometry">
            <mxPoint x="530" y="120" as="sourcePoint" />
          </mxGeometry>
        </mxCell>
        <mxCell id="NL4gGqxLW-4LoRQ3G2x3-61" value="Dispatcher" style="shape=umlActor;verticalLabelPosition=bottom;verticalAlign=top;html=1;outlineConnect=0;" parent="1" vertex="1">
          <mxGeometry x="560" y="90" width="30" height="60" as="geometry" />
        </mxCell>
        <mxCell id="qXKNGsoepD3LdG7qF9Sp-7" style="rounded=0;orthogonalLoop=1;jettySize=auto;html=1;entryX=0;entryY=0.5;entryDx=0;entryDy=0;" parent="1" target="NL4gGqxLW-4LoRQ3G2x3-2" edge="1">
          <mxGeometry relative="1" as="geometry">
            <mxPoint x="-10" y="80" as="sourcePoint" />
          </mxGeometry>
        </mxCell>
        <mxCell id="qXKNGsoepD3LdG7qF9Sp-8" style="rounded=0;orthogonalLoop=1;jettySize=auto;html=1;entryX=0;entryY=0;entryDx=0;entryDy=0;" parent="1" target="NL4gGqxLW-4LoRQ3G2x3-56" edge="1">
          <mxGeometry relative="1" as="geometry">
            <mxPoint x="-20" y="110" as="sourcePoint" />
          </mxGeometry>
        </mxCell>
        <mxCell id="qXKNGsoepD3LdG7qF9Sp-10" style="rounded=0;orthogonalLoop=1;jettySize=auto;html=1;entryX=0;entryY=0.5;entryDx=0;entryDy=0;" parent="1" target="NL4gGqxLW-4LoRQ3G2x3-31" edge="1">
          <mxGeometry relative="1" as="geometry">
            <mxPoint x="-30" y="-20" as="sourcePoint" />
          </mxGeometry>
        </mxCell>
        <mxCell id="qXKNGsoepD3LdG7qF9Sp-2" value="Teacher" style="shape=umlActor;verticalLabelPosition=bottom;verticalAlign=top;html=1;outlineConnect=0;" parent="1" vertex="1">
          <mxGeometry x="-80" y="-20" width="55" height="110" as="geometry" />
        </mxCell>
        <mxCell id="qXKNGsoepD3LdG7qF9Sp-12" value="Редагування корпоративних даних користувачів&amp;nbsp;" style="ellipse;whiteSpace=wrap;html=1;labelBackgroundColor=none;" parent="1" vertex="1">
          <mxGeometry x="349" y="225" width="130" height="60" as="geometry" />
        </mxCell>
        <mxCell id="qXKNGsoepD3LdG7qF9Sp-14" value="Будування розкладу" style="ellipse;whiteSpace=wrap;html=1;labelBackgroundColor=none;" parent="1" vertex="1">
          <mxGeometry x="349" y="320" width="140" height="40" as="geometry" />
        </mxCell>
        <mxCell id="qXKNGsoepD3LdG7qF9Sp-17" style="rounded=0;orthogonalLoop=1;jettySize=auto;html=1;dashed=1;endArrow=open;endFill=0;entryX=0;entryY=0.5;entryDx=0;entryDy=0;" parent="1" source="qXKNGsoepD3LdG7qF9Sp-16" target="qXKNGsoepD3LdG7qF9Sp-14" edge="1">
          <mxGeometry relative="1" as="geometry" />
        </mxCell>
        <mxCell id="qXKNGsoepD3LdG7qF9Sp-16" value="Редагування розкладу" style="ellipse;whiteSpace=wrap;html=1;labelBackgroundColor=none;" parent="1" vertex="1">
          <mxGeometry x="180" y="280" width="140" height="40" as="geometry" />
        </mxCell>
        <mxCell id="qXKNGsoepD3LdG7qF9Sp-18" value="&amp;lt;&amp;lt;extend&amp;gt;&amp;gt;" style="edgeLabel;html=1;align=center;verticalAlign=middle;resizable=0;points=[];labelBackgroundColor=default;" parent="1" vertex="1" connectable="0">
          <mxGeometry x="319.9975450591867" y="329.995740388068" as="geometry" />
        </mxCell>
        <mxCell id="qXKNGsoepD3LdG7qF9Sp-19" value="Перегляд розкладу кожної групи" style="ellipse;whiteSpace=wrap;html=1;labelBackgroundColor=none;" parent="1" vertex="1">
          <mxGeometry x="334" y="70" width="140" height="50" as="geometry" />
        </mxCell>
      </root>
    </mxGraphModel>
  </diagram>
</mxfile>
